<svg xmlns="http://www.w3.org/2000/svg" viewBox="0 0 129.53 117.05"><defs><style>.a{fill:#fff;}.b{fill:none;stroke:#fff;stroke-miterlimit:10;stroke-width:2px;}</style></defs><title>logo</title><path class="a" d="M14.3,115.77l4.14-4.55h2.8V123.5H18v-7.67l-3.48,3.85h-.48l-3.48-3.85v7.67H7.37V111.22h2.78Z" transform="translate(-7.37 -6.61)"/><path class="a" d="M28.66,115a5.34,5.34,0,0,1,3.47,1.15,3.85,3.85,0,0,1,1.43,3.18,3.81,3.81,0,0,1-1.45,3.18,5.47,5.47,0,0,1-3.45,1.12,5.21,5.21,0,0,1-3.55-1.2,4.21,4.21,0,0,1,0-6.25A5.35,5.35,0,0,1,28.66,115Zm0,7.09c1.31,0,2-1,2-2.83s-.65-2.7-2-2.7a1.76,1.76,0,0,0-1.48.71,3.42,3.42,0,0,0-.53,2C26.65,121.18,27.32,122.11,28.66,122.11Z" transform="translate(-7.37 -6.61)"/><path class="a" d="M38.51,115.2v1.18A3.68,3.68,0,0,1,41.34,115a3.26,3.26,0,0,1,2.27.83,3,3,0,0,1,.91,2.37v5.28H41.78v-5.07c0-1.1-.45-1.66-1.36-1.66-.65,0-1.28.46-1.91,1.37v5.36H35.77v-8.3Z" transform="translate(-7.37 -6.61)"/><path class="a" d="M53.42,115.2V117H50.25v3.42a1.32,1.32,0,0,0,.35,1,1.34,1.34,0,0,0,1,.36,4.2,4.2,0,0,0,1.83-.48v1.88a6.78,6.78,0,0,1-2.53.52,3.62,3.62,0,0,1-2.5-.79,3,3,0,0,1-.88-2.32V117H46.26v-.51l3.65-3.88h.34v2.61Z" transform="translate(-7.37 -6.61)"/><path class="a" d="M58,115.2v2.37h0c.79-1.7,1.71-2.55,2.77-2.55a3.3,3.3,0,0,1,1.82.76l-.76,2.31a3.42,3.42,0,0,0-1.62-.62,1.88,1.88,0,0,0-1.6,1.13,5.83,5.83,0,0,0-.65,1.3v3.6H55.29v-8.3Z" transform="translate(-7.37 -6.61)"/><path class="a" d="M72.19,120.92v1.64a6.65,6.65,0,0,1-3.89,1.09,5.46,5.46,0,0,1-3.67-1.17,3.88,3.88,0,0,1-1.38-3.11,4.1,4.1,0,0,1,1.29-3.12,4.59,4.59,0,0,1,3.3-1.23,4.47,4.47,0,0,1,3.3,1.29,4.39,4.39,0,0,1,1.2,3.45H66.08a2.39,2.39,0,0,0,.84,1.74,3.22,3.22,0,0,0,2,.61A5.71,5.71,0,0,0,72.19,120.92Zm-6-2.53h3.78a1.89,1.89,0,0,0-3.78,0Z" transform="translate(-7.37 -6.61)"/><path class="a" d="M83.39,121.45v1.45a5.38,5.38,0,0,1-2.57.75q-1.29,0-1.53-.93a5.22,5.22,0,0,1-2.87.93,2.56,2.56,0,0,1-1.73-.61,1.84,1.84,0,0,1-.71-1.42,2.27,2.27,0,0,1,.74-1.75,14.69,14.69,0,0,1,4.44-1.71c.06-.93-.44-1.39-1.51-1.39a4.54,4.54,0,0,0-3.21,1.39V116a7.32,7.32,0,0,1,3.77-1q3.69,0,3.69,2.53v3.78c0,.39.15.58.45.58A2.19,2.19,0,0,0,83.39,121.45Zm-4.23,0v-2a8.38,8.38,0,0,0-1.89.82,1.12,1.12,0,0,0-.51.93.88.88,0,0,0,.26.63.86.86,0,0,0,.63.26A2.32,2.32,0,0,0,79.16,121.48Z" transform="translate(-7.37 -6.61)"/><path class="a" d="M87.7,111.22V123.5H85V111.22Z" transform="translate(-7.37 -6.61)"/><path class="a" d="M104.44,121v2.51H95.92v-.35q1.17-1.37,2.68-3.45a21.49,21.49,0,0,0,1.91-3,4.23,4.23,0,0,0,.39-1.71,1.75,1.75,0,0,0-.5-1.24,1.66,1.66,0,0,0-1.21-.52,4.87,4.87,0,0,0-3.11,1.53v-2.57a6.94,6.94,0,0,1,3.61-1.17,4.49,4.49,0,0,1,3,.93,3.17,3.17,0,0,1,1.09,2.56c0,1.48-1.16,3.63-3.5,6.44Z" transform="translate(-7.37 -6.61)"/><path class="a" d="M110.93,111.06a3.67,3.67,0,0,1,3.2,1.68,7.93,7.93,0,0,1,1.15,4.56,8.29,8.29,0,0,1-1.12,4.67,3.6,3.6,0,0,1-3.19,1.68A3.75,3.75,0,0,1,107.7,122a9.67,9.67,0,0,1,0-9.26A3.73,3.73,0,0,1,110.93,111.06Zm0,10.29a1.19,1.19,0,0,0,1.13-.89,10.73,10.73,0,0,0,.35-3.35,8.46,8.46,0,0,0-.35-2.9,1.18,1.18,0,0,0-1.15-.85,1.2,1.2,0,0,0-1.14.83,9.42,9.42,0,0,0-.37,3.29,8.44,8.44,0,0,0,.37,3A1.22,1.22,0,0,0,110.93,121.35Z" transform="translate(-7.37 -6.61)"/><path class="a" d="M126.05,121v2.51h-8.52v-.35c.78-.91,1.68-2.06,2.68-3.45a21.49,21.49,0,0,0,1.91-3,4.23,4.23,0,0,0,.39-1.71,1.71,1.71,0,0,0-.5-1.24,1.64,1.64,0,0,0-1.21-.52,4.85,4.85,0,0,0-3.1,1.53v-2.57a6.88,6.88,0,0,1,3.61-1.17,4.48,4.48,0,0,1,3,.93,3.17,3.17,0,0,1,1.09,2.56q0,2.22-3.49,6.44Z" transform="translate(-7.37 -6.61)"/><path class="a" d="M132.55,111.06a3.65,3.65,0,0,1,3.19,1.68,7.93,7.93,0,0,1,1.15,4.56,8.38,8.38,0,0,1-1.11,4.67,3.62,3.62,0,0,1-3.2,1.68,3.75,3.75,0,0,1-3.27-1.67,9.67,9.67,0,0,1,0-9.26A3.74,3.74,0,0,1,132.55,111.06Zm0,10.29a1.19,1.19,0,0,0,1.12-.89,10.43,10.43,0,0,0,.35-3.35,8.52,8.52,0,0,0-.34-2.9,1.19,1.19,0,0,0-1.15-.85,1.2,1.2,0,0,0-1.15.83,9.68,9.68,0,0,0-.37,3.29,8.68,8.68,0,0,0,.37,3A1.22,1.22,0,0,0,132.55,121.35Z" transform="translate(-7.37 -6.61)"/><path class="a" d="M25.06,82.8,35.59,70.66h7.09V103.4H34.52V83L25.68,93.23H24.45L15.61,83V103.4H7.45V70.66h7.08Z" transform="translate(-7.37 -6.61)"/><path class="a" d="M60.76,70.66V103.4H52.6V70.66Z" transform="translate(-7.37 -6.61)"/><path class="a" d="M70.66,70.66H85.09q8.37,0,13.23,4.58a15.54,15.54,0,0,1,4.87,11.85q0,7.62-4.94,12T84.18,103.4H70.66Zm8.15,6V97.4h5.32c3.46,0,6.1-.94,7.93-2.84a10.42,10.42,0,0,0,2.74-7.51A10.29,10.29,0,0,0,92,79.44q-2.77-2.77-8-2.78Z" transform="translate(-7.37 -6.61)"/><path class="a" d="M136.55,97.4v6h-25V70.66h8.15V97.4Z" transform="translate(-7.37 -6.61)"/><path class="a" d="M57.27,52.44a7.83,7.83,0,1,1-7.83-7.83A7.83,7.83,0,0,1,57.27,52.44Z" transform="translate(-7.37 -6.61)"/><line class="b" x1="42.08" y1="45.83" x2="83.57" y2="27.95"/><path class="a" d="M101,34.55a10.06,10.06,0,1,1-10.06-10A10.06,10.06,0,0,1,101,34.55Z" transform="translate(-7.37 -6.61)"/><path class="a" d="M30.05,38.32a5.72,5.72,0,1,1-5.72-5.71A5.72,5.72,0,0,1,30.05,38.32Z" transform="translate(-7.37 -6.61)"/><line class="b" x1="14.22" y1="30" x2="42.57" y2="45.95"/><path class="a" d="M125.05,47.32a5.72,5.72,0,1,1-5.72-5.71A5.72,5.72,0,0,1,125.05,47.32Z" transform="translate(-7.37 -6.61)"/><line class="b" x1="83.08" y1="27.83" x2="111.96" y2="40.72"/><line class="b" x1="83.08" y1="26.83" x2="102.68" y2="3.44"/><path class="a" d="M113.48,10a3.44,3.44,0,1,1-3.43-3.43A3.44,3.44,0,0,1,113.48,10Z" transform="translate(-7.37 -6.61)"/></svg>